<svg class="w-auto h-32 mx-auto" height="21" viewBox="0 0 21 21" width="21" xmlns="http://www.w3.org/2000/svg"><g fill="none" fill-rule="evenodd" stroke="#313f4e" stroke-width=".5" transform="translate(3 .5)"><ellipse cx="7.377947" cy="9.994677" rx="7.337643" ry="9.954373"></ellipse><path d="m10.0737643.89277567 1.2205323 3.81292775 2.7992395 1.49277567-1.0844106 3.73992395 1.1612167 3.62737646-2.7041825 1.6030418-1.1247148 3.878327-2.87300384-1.5323194-2.65171102 1.5726236-1.22813688-3.8403042-2.88973384-1.5414449 1.06463878-3.6730038-1.1338403-3.54144485 2.7338403-1.62053232 1.11863118-3.86007604 2.8 1.49353612s2.80152092-1.64486692 2.79163502-1.61140684z"></path><path d="m7.26463878 2.59087452c1.16045628 2.6053232 5.65855512 7.30038023 5.65855512 7.30038023s-3.45931557 3.58022815-5.4380228 7.49125475c-1.67908745-3.3406844-5.62737642-7.3368821-5.62737642-7.3368821s2.79923954-2.73231942 5.4068441-7.45475288z"></path><path d="m11.21673 4.70114068c-.3041825 2.11939164.0190114 8.43041822.2281369 10.43650192-4.09581747-.5543726-7.81064637.0212928-7.81064637.0212928s.22813688-6.74068445-.22813688-10.2494297c2.43193916.86996198 6.89581745.20912548 7.81064635-.20836502z"></path><path d="m7.317753 2.489734-.026-2.431179"></path><path d="m11.293536 4.717871 1.36654-1.66692"></path><path d="m13.020532 9.932319 1.669202.13308"></path><path d="m11.472243 15.147529 1.184031 1.777186"></path><path d="m7.466814 17.448669.012 2.503422"></path><path d="m3.618251 15.201521-1.602281 1.591635"></path><path d="m1.738403 10.005323-1.696578.123955"></path><path d="m3.369582 4.885171-1.363498-1.626616"></path></g></svg>