<svg class="w-auto h-32 mx-auto" height="21" viewBox="0 0 21 21" width="21" xmlns="http://www.w3.org/2000/svg"><g fill="none" fill-rule="evenodd" stroke="#313f4e" stroke-width=".5" transform="translate(.5 .5)"><circle cx="10.002062" cy="10.002062" r="9.947423"></circle><path d="m13.656701.90618557 1.6546392 3.81443299 3.7948454 1.4927835-1.4701031 3.73195876 1.5742268 3.62577318-3.6659794 1.6020619-1.5237113 3.8752577-3.8958763-1.5319588-3.59484539 1.5711341-1.66494846-3.8360825-3.9185567-1.5402062 1.44329897-3.671134-1.53608247-3.53917527 3.70618556-1.61958763 1.51649485-3.85773196 3.79587629 1.49175258s3.79793815-1.64329897 3.78453605-1.60927835z"></path><path d="m9.84845361 2.60309278c1.57319589 2.60412371 7.67113399 7.29381444 7.67113399 7.29381444s-4.6896907 3.57731958-7.3721649 7.48659798c-2.27628868-3.3391753-7.628866-7.3329897-7.628866-7.3329897s3.79484536-2.73092787 7.32989691-7.44742272z"></path><path d="m15.2061856 4.71134021c-.4123712 2.1185567.0257732 8.42577319.3092783 10.42989689-5.5525773-.5536082-10.58865978.0216495-10.58865978.0216495s.30927835-6.73608248-.30927835-10.24329897c3.29690722.86701031 9.34845363.20927835 10.58865983-.20824742z"></path><path d="m9.9 2.502062-.026804-2.429897"></path><path d="m15.310309 4.728866 1.852578-1.66701"></path><path d="m17.651546 9.940206 2.262887.13299"></path><path d="m15.552577 15.151546 1.605155 1.775258"></path><path d="m10.108247 17.451546.012372 2.501031"></path><path d="m4.905155 15.205155-2.172165 1.590721"></path><path d="m2.356701 10.012371-2.3.123712"></path><path d="m4.568041 4.895876-1.848453-1.625773"></path></g></svg>